# xmcd
#
# Track frame offsets: 
#        150
#        13990
#        29566
#        51156
#        67797
#        83833
#        96291
#        112683
#        122558
#        133223
#        150476
#        168133
#        186146
#        198834
#
# Disc length: 2820 seconds
#
# Revision: 0
# Processed by: cddbd v1.5.2PL0 Copyright (c) Steve Scherf et al.
# Submitted via: ExactAudioCopy v0.90b4
#
DISCID=ae0b020e
DTITLE=Jimmie Vaughan - Plays More Blues, Ballads and Favorites
DYEAR=2011
DGENRE=Blues
TTITLE0=I Ain't Never
TTITLE1=No Use Knocking
TTITLE2=Tear Drop Blues
TTITLE3=I Hang My Head and Cry
TTITLE4=It's Been a Long Time
TTITLE5=Breaking Up Is Hard To Do
TTITLE6=What Makes You So Tough
TTITLE7=Greenbacks
TTITLE8=I'm in the Mood For You
TTITLE9=I Ain't Gonna Do It No More
TTITLE10=Cried Like a Baby
TTITLE11=Oh Oh Oh
TTITLE12=I'm A Love You
TTITLE13=The Rains Came
EXTD=
EXTT0=
EXTT1=
EXTT2=
EXTT3=
EXTT4=
EXTT5=
EXTT6=
EXTT7=
EXTT8=
EXTT9=
EXTT10=
EXTT11=
EXTT12=
EXTT13=
PLAYORDER=
